/* XPM */
static char *dummy[]={
"64 64 169 2",
"Qt c None",
"#q c #000000",
".K c #010101",
".2 c #010101",
"#m c #010101",
"#n c #020202",
"#8 c #020102",
"ax c #020202",
"#j c #020202",
".v c #020202",
"#t c #030303",
".8 c #020202",
".Y c #040404",
"#Z c #050505",
".N c #030303",
"aG c #040404",
"#h c #050505",
"ak c #040404",
".Q c #050505",
".t c #040404",
".Z c #050505",
"ah c #070707",
"#T c #060606",
"#e c #080708",
"#F c #050505",
"#N c #070707",
"#E c #080808",
".r c #060606",
"aM c #080808",
"aa c #040404",
"aq c #080808",
"ab c #060606",
"ad c #090909",
".w c #0a0a0a",
"aH c #090909",
"#a c #080808",
"al c #0a0909",
"a# c #090909",
"#d c #080808",
".J c #090909",
"#2 c #0a0a0a",
".p c #0c0b0b",
"#I c #090909",
".n c #0a090a",
".V c #0b0a0a",
".G c #0b0b0b",
".y c #0d0c0c",
"au c #0e0d0e",
"#W c #0c0b0b",
".g c #0a0909",
".d c #0b0a0a",
".j c #0b0b0b",
".a c #0c0b0c",
"#5 c #0c0c0c",
".l c #0e0e0e",
".5 c #0d0c0d",
".W c #0d0c0d",
"ar c #0f0e0f",
"ae c #161616",
".# c #0c0b0c",
".9 c #0d0c0c",
"#L c #0e0d0e",
"#z c #0f0e0f",
"#4 c #100f10",
"af c #161516",
"ag c #161616",
".O c #0e0d0d",
".F c #100f10",
".b c #0b0a0a",
"#7 c #0b0b0b",
"az c #111010",
"#Q c #121112",
".z c #0d0c0d",
"av c #131213",
".D c #0d0c0c",
"#v c #141314",
"#p c #161515",
".S c #141313",
"aD c #141314",
"ac c #151414",
"#O c #171616",
"#0 c #151314",
"#H c #151314",
"aA c #151415",
".B c #161515",
".6 c #181717",
"#9 c #181616",
"## c #181617",
"aJ c #181717",
"an c #191818",
".T c #191617",
".1 c #1a1819",
"aE c #191818",
"#r c #171415",
"#w c #171515",
"#u c #191717",
"#R c #1a1819",
"ai c #1b1919",
"#S c #1a1819",
".x c #1e1c1c",
".C c #191717",
"as c #1c1a1b",
"#y c #201e1f",
".P c #1d1b1b",
"#o c #232121",
"#A c #1d1b1b",
"#3 c #1e1b1c",
"#k c #1c1a1a",
"#B c #1e1c1c",
".3 c #201d1e",
"ao c #201d1d",
".L c #1f1d1e",
"#g c #201d1e",
".u c #201d1d",
"aw c #1f1e1f",
"#C c #232122",
"#U c #201e1f",
"#i c #1f1d1d",
"#K c #211e1e",
"at c #222020",
"#V c #201e1e",
"#G c #232122",
".s c #242021",
"#l c #211f1f",
".X c #221f20",
".M c #221e20",
"#x c #232122",
"#f c #211f20",
".7 c #221f20",
"aB c #222021",
".q c #211e1f",
".R c #232121",
".0 c #221f20",
"#s c #242122",
"#6 c #252223",
"ay c #242122",
"#J c #242223",
"#X c #242122",
".o c #231f20",
"aL c #211f20",
"aj c #222021",
"aF c #242122",
"#b c #242122",
".I c #221f20",
"#M c #242022",
"aK c #221e1f",
".c c #221f20",
".k c #242021",
".m c #272425",
".f c #221e1f",
".i c #232021",
"aC c #242022",
".U c #232021",
"#1 c #242021",
"#c c #252122",
"a. c #232021",
"#P c #242021",
"#D c #242122",
"#Y c #252122",
"#. c #252122",
".H c #232021",
"aI c #242021",
".4 c #242122",
".E c #252122",
"ap c #262324",
".e c #231f20",
".A c #232021",
".h c #242021",
"am c #262223",
"QtQtQtQtQtQtQtQtQtQtQtQtQtQtQtQtQtQtQtQtQtQtQtQtQtQtQtQtQtQtQtQtQtQtQtQtQtQtQtQtQtQtQtQtQtQtQtQtQtQtQtQtQtQtQtQtQtQtQtQtQtQtQtQt",
"QtQtQtQtQtQtQtQtQtQtQtQtQtQtQtQtQtQtQtQtQtQtQtQtQtQtQtQtQtQtQtQtQtQtQtQtQtQtQtQtQtQtQtQtQtQtQtQtQtQtQtQtQtQtQtQtQtQtQtQtQtQtQtQt",
"QtQtQtQtQtQtQtQtQtQtQtQtQtQtQtQtQtQtQtQtQtQtQtQtQtQtQtQtQtQtQtQtQtQtQtQt.#.aQtQtQtQtQtQtQtQtQtQtQtQtQtQtQtQtQtQtQtQtQtQtQtQtQtQt",
"QtQtQtQtQtQtQtQtQtQtQtQtQtQtQtQtQtQtQtQtQtQtQtQtQtQtQtQtQtQtQtQtQtQtQtQt.b.c.dQtQtQtQtQtQtQtQtQtQtQtQtQtQtQtQtQtQtQtQtQtQtQtQtQt",
"QtQtQtQtQtQtQtQtQtQtQtQtQtQtQtQtQtQtQtQtQtQtQtQtQtQtQtQtQtQtQtQtQtQtQtQt.b.e.f.gQtQtQtQtQtQtQtQtQtQtQtQtQtQtQtQtQtQtQtQtQtQtQtQt",
"QtQtQtQtQtQtQtQtQtQtQtQtQtQtQtQtQtQtQtQtQtQtQtQtQtQtQtQtQtQtQtQtQtQtQtQt.b.h.h.i.jQtQtQtQtQtQtQtQtQtQtQtQtQtQtQtQtQtQtQtQtQtQtQt",
"QtQtQtQtQtQtQtQtQtQtQtQtQtQtQtQtQtQtQtQtQtQtQtQtQtQtQtQtQtQtQtQtQtQtQtQt.b.h.h.h.k.lQtQtQtQtQtQtQtQtQtQtQtQtQtQtQtQtQtQtQtQtQtQt",
"QtQtQtQtQtQtQtQtQtQtQtQtQtQtQtQtQtQtQtQtQtQtQtQtQtQtQtQtQtQtQtQtQtQtQtQt.b.h.h.h.h.m.nQtQtQtQtQtQtQtQtQtQtQtQtQtQtQtQtQtQtQtQtQt",
"QtQtQtQtQtQtQtQtQtQtQtQtQtQtQtQtQtQtQtQtQtQtQtQtQtQtQtQtQtQtQtQtQtQtQtQt.b.h.h.h.h.h.o.pQtQtQtQtQtQtQtQtQtQtQtQtQtQtQtQtQtQtQtQt",
"QtQtQtQtQtQtQtQtQtQtQtQtQtQtQtQtQtQtQtQtQtQtQtQtQtQtQtQtQtQtQtQtQtQtQtQt.b.h.h.h.h.h.h.q.rQtQtQtQtQtQtQtQtQtQtQtQtQtQtQtQtQtQtQt",
"QtQtQtQtQtQtQtQtQtQtQtQtQtQtQtQtQtQtQtQtQtQtQtQtQtQtQtQtQtQtQtQtQtQtQtQt.b.h.h.h.h.h.h.e.s.tQtQtQtQtQtQtQtQtQtQtQtQtQtQtQtQtQtQt",
"QtQtQtQtQtQtQtQtQtQtQtQtQtQtQtQtQtQtQtQtQtQtQtQtQtQtQtQtQtQtQtQtQtQtQtQt.b.h.h.h.h.h.h.h.h.u.vQtQtQtQtQtQtQtQtQtQtQtQtQtQtQtQtQt",
"QtQtQtQtQtQtQtQtQtQtQtQtQtQtQtQtQtQtQtQtQtQtQtQtQtQtQtQtQtQtQtQtQt.wQtQt.b.h.h.h.h.h.h.h.h.h.xQtQtQtQtQtQtQtQtQtQtQtQtQtQtQtQtQt",
"QtQtQtQtQtQtQtQtQtQtQtQtQtQtQtQtQtQtQtQtQtQtQtQtQtQtQtQtQtQtQtQt.y.zQtQt.b.h.h.h.h.h.h.h.h.h.A.BQtQtQtQtQtQtQtQtQtQtQtQtQtQtQtQt",
"QtQtQtQtQtQtQtQtQtQtQtQtQtQtQtQtQtQtQtQtQtQtQtQtQtQtQtQtQtQtQtQt.C.DQtQt.b.h.h.h.h.h.h.h.h.h.h.E.FQtQtQtQtQtQtQtQtQtQtQtQtQtQtQt",
"QtQtQtQtQtQtQtQtQtQtQtQtQtQtQtQtQtQtQtQtQtQtQtQtQtQtQtQtQtQtQt.G.H.DQtQt.b.h.h.h.h.h.h.h.h.h.h.h.I.JQtQtQtQtQtQtQtQtQtQtQtQtQtQt",
"QtQtQtQtQtQtQtQtQtQtQtQtQtQtQtQtQtQtQtQtQtQtQtQtQtQtQtQtQtQt.K.L.h.DQtQt.b.h.h.h.h.h.h.h.h.h.h.h.h.M.NQtQtQtQtQtQtQtQtQtQtQtQtQt",
"QtQtQtQtQtQtQtQtQtQtQtQtQtQtQtQtQtQtQtQtQtQtQtQtQtQtQtQtQtQt.O.h.h.DQtQt.b.h.h.h.h.h.h.h.h.h.h.h.h.h.P.KQtQtQtQtQtQtQtQtQtQtQtQt",
"QtQtQtQtQtQtQtQtQtQtQtQtQtQtQtQtQtQtQtQtQtQtQtQtQtQtQtQtQt.Q.R.h.h.DQtQt.b.h.h.h.h.h.h.h.h.h.h.h.h.h.h.SQtQtQtQtQtQtQtQtQtQtQtQt",
"QtQtQtQtQtQtQtQtQtQtQtQtQtQtQtQtQtQtQtQtQtQtQtQtQtQtQtQtQt.T.h.h.h.DQtQt.b.h.h.h.h.h.h.h.h.h.h.h.h.h.h.U.VQtQtQtQtQtQtQtQtQtQtQt",
"QtQtQtQtQtQtQtQtQtQtQtQtQtQtQtQtQtQtQtQtQtQtQtQtQtQtQtQt.W.E.h.h.h.DQtQt.b.h.h.h.h.h.h.h.h.h.h.h.h.h.h.h.X.YQtQtQtQtQtQtQtQtQtQt",
"QtQtQtQtQtQtQtQtQtQtQtQtQtQtQtQtQtQtQtQtQtQtQtQtQtQtQt.Z.0.h.h.h.h.DQtQt.b.h.h.h.h.h.h.h.h.h.h.h.h.h.h.h.h.1QtQtQtQtQtQtQtQtQtQt",
"QtQtQtQtQtQtQtQtQtQtQtQtQtQtQtQtQtQtQtQtQtQtQtQtQtQt.2.3.h.h.h.h.h.DQtQt.b.h.h.h.h.h.h.h.h.h.h.h.h.h.h.h.h.4.5QtQtQtQtQtQtQtQtQt",
"QtQtQtQtQtQtQtQtQtQtQtQtQtQtQtQtQtQtQtQtQtQtQtQtQtQt.6.h.h.h.h.h.h.DQtQt.b.h.h.h.h.h.h.h.h.h.h.h.h.h.h.h.h.h.7.8QtQtQtQtQtQtQtQt",
"QtQtQtQtQtQtQtQtQtQtQtQtQtQtQtQtQtQtQtQtQtQtQtQtQt.9#..h.h.h.h.h.h.DQtQt.b.h.h.h.h.h.h.h.h.h.h.h.h.h.h.h.h.h.h##QtQtQtQtQtQtQtQt",
"QtQtQtQtQtQtQtQtQtQtQtQtQtQtQtQtQtQtQtQtQtQtQtQt#a#b.h.h.h.h.h.h.h.DQtQt.b.h.h.h.h.h.h.h.h.h.h.h.h.h.h.h.h.h.h#c#dQtQtQtQtQtQtQt",
"QtQtQtQtQtQtQtQtQtQtQtQtQtQtQtQtQtQtQtQtQtQtQt#e#f.h.h.h.h.h.h.h.h.DQtQt.b.h.h.h.h.h.h.h.h.h.h.h.h.h.h.h.h.h.h.h#g.KQtQtQtQtQtQt",
"QtQtQtQtQtQtQtQtQtQtQtQtQtQtQtQtQtQtQtQtQtQt#h#i.h.h.h.h.h.h.h.h.h.DQtQt.b.h.h.h.h.h.h.h.h.h.h.h.h.h.h.h.h.h.h.h.h.FQtQtQtQtQtQt",
"QtQtQtQtQtQtQtQtQtQtQtQtQtQtQtQtQtQtQtQtQt#j#k.h.h.h.h.h.h.h.h.h.h.DQtQt.b.h.h.h.h.h.h.h.h.h.h.h.h.h.h.h.h.h.h.h.h#l#mQtQtQtQtQt",
"QtQtQtQtQtQtQtQtQtQtQtQtQtQtQtQtQtQtQtQt#n#o.e.h.h.h.h.h.h.h.h.h.h.DQtQt.b.h.h.h.h.h.h.h.h.h.h.h.h.h.h.h.h.h.h.h.h.A#pQtQtQtQtQt",
"QtQtQtQtQtQtQtQtQtQtQtQtQtQtQtQtQtQtQt#q#r.h.h.h.h.h.h.h.h.h.h.h.h.DQtQt.b.h.h.h.h.h.h.h.h.h.h.h.h.h.h.h.h.h.h.h.h.h#s#tQtQtQtQt",
"QtQtQtQtQtQtQtQtQtQtQtQtQtQtQtQtQtQt#q#u.h.h.h.h.h.h.h.h.h.h.h.h.h.DQtQt.b.h.h.h.h.h.h.h.h.h.h.h.h.h.h.h.h.h.h.h.h.h.h#vQtQtQtQt",
"QtQtQtQtQtQtQtQtQtQtQtQtQtQtQtQtQt#q#w.h.h.h.h.h.h.h.h.h.h.h.h.h.h.DQtQt.b.h.h.h.h.h.h.h.h.h.h.h.h.h.h.h.h.h.h.h.h.h.h#xQtQtQtQt",
"QtQtQtQtQtQtQtQtQtQtQtQtQtQtQtQt#j#y.e.h.h.h.h.h.h.h.h.h.h.h.h.h.h.DQtQt.b.h.h.h.h.h.h.h.h.h.h.h.h.h.h.h.h.h.h.h.h.h.h.h#zQtQtQt",
"QtQtQtQtQtQtQtQtQtQtQtQtQtQtQt#j#A.h.h.h.h.h.h.h.h.h.h.h.h.h.h.h.h.DQtQt.b.h.h.h.h.h.h.h.h.h.h.h.h.h.h.h.h.h.h.h.h.h.h.h#BQtQtQt",
"QtQtQtQtQtQtQtQtQtQtQtQtQtQt.N#C.e.h.h.h.h.h.h.h.h.h.h.h.h.h.h.h.h.DQtQt.b.h.h.h.h.h.h.h.h.h.h.h.h.h.h.h.h.h.h.h.h.h.h.h#D#EQtQt",
"QtQtQtQtQtQtQtQtQtQtQtQtQt#F#G.h.h.h.h.h.h.h.h.h.h.h.h.h.h.h.h.h.h.DQtQt.b.h.h.h.h.h.h.h.h.h.h.h.h.h.h.h.h.h.h.h.h.h.h.h.e#HQtQt",
"QtQtQtQtQtQtQtQtQtQtQtQt#I#J.h.h.h.h.h.h.h.h.h.h.h.h.h.h.h.h.h.h.h.DQtQt.b.h.h.h.h.h.h.h.h.h.h.h.h.h.h.h.h.h.h.h.h.h.h.h.h#KQtQt",
"QtQtQtQtQtQtQtQtQtQtQt#L#M.h.h.h.h.h.h.h.h.h.h.h.h.h.h.h.h.h.h.h.h.DQtQt.b.h.h.h.h.h.h.h.h.h.h.h.h.h.h.h.h.h.h.h.h.h.h.h.h.E#NQt",
"QtQtQtQtQtQtQtQtQtQt#O#P.h.h.h.h.h.h.h.h.h.h.h.h.h.h.h.h.h.h.h.h.h.DQtQt.b.h.h.h.h.h.h.h.h.h.h.h.h.h.h.h.h.h.h.h.h.h.h.h.h.h#QQt",
"QtQtQtQtQtQtQtQt#t#R.h.h.h.h.h.h.h.h.h.h.h.h.h.h.h.h.h.h.h.h.h.h.h.DQtQt.b.h.h.h.h.h.h.h.h.h.h.h.h.h.h.h.h.h.h.h.h.h.h.h.h.h#SQt",
"QtQtQtQtQtQtQt#T#U.e.h.h.h.h.h.h.h.h.h.h.h.h.h.h.h.h.h.h.h.h.h.h.h.DQtQt.b.h.h.h.h.h.h.h.h.h.h.h.h.h.h.h.h.h.h.h.h.h.h.h.h.h#VQt",
"QtQtQtQtQtQt#W#X.h.h.h.h.h.h.h.h.h.h.h.h.h.h.h.h.h.h.h.h.h.h.h.h.h.DQtQt.b.h.h.h.h.h.h.h.h.h.h.h.h.h.h.h.h.h.h.h.h.h.h.h.h.h#Y#Z",
"QtQtQtQtQt#0#1.h.h.h.h.h.h.h.h.h.h.h.h.h.h.h.h.h.h.h.h.h.h.h.h.h.h.DQtQt.b.h.h.h.h.h.h.h.h.h.h.h.h.h.h.h.h.h.h.h.h.h.h.h.h.h.h#2",
"QtQtQt.Z#3.h.h.h.h.h.h.h.h.h.h.h.h.h.h.h.h.h.h.h.h.h.h.h.h.h.h.h.h.DQtQt.b.h.h.h.h.h.h.h.h.h.h.h.h.h.h.h.h.h.h.h.h.h.h.h.h.h.h#4",
"QtQt#5#6.h.h.h.h.h.h.h.h.h.h.h.h.h.h.h.h.h.h.h.h.h.h.h.h.h.h.h.h.h.DQtQt.b.h.h.h.h.h.h.h.h.h.h.h.h.h.h.h.h.h.h.h.h.h.h.h.h.h.h#7",
"#8#9a..h.h.h.h.h.h.h.h.h.h.h.h.h.h.h.h.h.h.h.h.h.h.h.h.h.h.h.h.h.h.DQtQt.b.A.h.h.h.h.h.h.h.h.h.h.h.h.h.h.h.h.h.h.h.h.h.h.h.h.h.b",
"a#.b.b.b.b.b.b.b.b.b.b.b.b.b.b.b.b.b.b.b.b.b.b.b.b.b.b.b.b.b.b.b.baaQtQtabacacacacacacacacacacacacacacacacacacacacacacacacacacad",
"QtQtQtQtQtQtQtQtQtQtQtQtQtQtQtQtQtQtQtQtQtQtQtQtQtQtQtQtQtQtQtQtQtQtQtQtQtQtQtQtQtQtQtQtQtQtQtQtQtQtQtQtQtQtQtQtQtQtQtQtQtQtQtQt",
"QtQtQtaeafafafafafafafafafafafafafafafafafafafafafafafafafafafafafafafafafafafafafafafafafafafafafafafafafafafafafafafafagahQtQt",
"QtQtQtai.e.h.h.h.h.h.h.h.h.h.h.h.h.h.h.h.h.h.h.h.h.h.h.h.h.h.h.h.h.h.h.h.h.h.h.h.h.h.h.h.h.h.h.h.h.h.h.h.h.h.h.h.h.h.h.hajakQtQt",
"QtQtQtalam.h.h.h.h.h.h.h.h.h.h.h.h.h.h.h.h.h.h.h.h.h.h.h.h.h.h.h.h.h.h.h.h.h.h.h.h.h.h.h.h.h.h.h.h.h.h.h.h.h.h.h.h.h.h.hanQtQtQt",
"QtQtQtQtao.h.h.h.h.h.h.h.h.h.h.h.h.h.h.h.h.h.h.h.h.h.h.h.h.h.h.h.h.h.h.h.h.h.h.h.h.h.h.h.h.h.h.h.h.h.h.h.h.h.h.h.h.h.hapaqQtQtQt",
"QtQtQtQtar.h.h.h.h.h.h.h.h.h.h.h.h.h.h.h.h.h.h.h.h.h.h.h.h.h.h.h.h.h.h.h.h.h.h.h.h.h.h.h.h.h.h.h.h.h.h.h.h.h.h.h.h.h.hasQtQtQtQt",
"QtQtQtQt.Kat.h.h.h.h.h.h.h.h.h.h.h.h.h.h.h.h.h.h.h.h.h.h.h.h.h.h.h.h.h.h.h.h.h.h.h.h.h.h.h.h.h.h.h.h.h.h.h.h.h.h.h.h.hauQtQtQtQt",
"QtQtQtQtQtav.h.h.h.h.h.h.h.h.h.h.h.h.h.h.h.h.h.h.h.h.h.h.h.h.h.h.h.h.h.h.h.h.h.h.h.h.h.h.h.h.h.h.h.h.h.h.h.h.h.h.h.hawQtQtQtQtQt",
"QtQtQtQtQtaxay.h.h.h.h.h.h.h.h.h.h.h.h.h.h.h.h.h.h.h.h.h.h.h.h.h.h.h.h.h.h.h.h.h.h.h.h.h.h.h.h.h.h.h.h.h.h.h.h.h.h.hazQtQtQtQtQt",
"QtQtQtQtQtQtaA.h.h.h.h.h.h.h.h.h.h.h.h.h.h.h.h.h.h.h.h.h.h.h.h.h.h.h.h.h.h.h.h.h.h.h.h.h.h.h.h.h.h.h.h.h.h.h.h.h.haB#nQtQtQtQtQt",
"QtQtQtQtQtQt.ZaC.h.h.h.h.h.h.h.h.h.h.h.h.h.h.h.h.h.h.h.h.h.h.h.h.h.h.h.h.h.h.h.h.h.h.h.h.h.h.h.h.h.h.h.h.h.h.h.h.haDQtQtQtQtQtQt",
"QtQtQtQtQtQtQtaE.h.h.h.h.h.h.h.h.h.h.h.h.h.h.h.h.h.h.h.h.h.h.h.h.h.h.h.h.h.h.h.h.h.h.h.h.h.h.h.h.h.h.h.h.h.h.h.haFaGQtQtQtQtQtQt",
"QtQtQtQtQtQtQtaHaI.h.h.h.h.h.h.h.h.h.h.h.h.h.h.h.h.h.h.h.h.h.h.h.h.h.h.h.h.h.h.h.h.h.h.h.h.h.h.h.h.h.h.h.h.h.h.AaJQtQtQtQtQtQtQt",
"QtQtQtQtQtQtQtQt.PaKaKaKaKaKaKaKaKaKaKaKaKaKaKaKaKaKaKaKaKaKaKaKaKaKaKaKaKaKaKaKaKaKaKaKaKaKaKaKaKaKaKaKaKaKaKaLaMQtQtQtQtQtQtQt",
"QtQtQtQtQtQtQtQtQtQtQtQtQtQtQtQtQtQtQtQtQtQtQtQtQtQtQtQtQtQtQtQtQtQtQtQtQtQtQtQtQtQtQtQtQtQtQtQtQtQtQtQtQtQtQtQtQtQtQtQtQtQtQtQt",
"QtQtQtQtQtQtQtQtQtQtQtQtQtQtQtQtQtQtQtQtQtQtQtQtQtQtQtQtQtQtQtQtQtQtQtQtQtQtQtQtQtQtQtQtQtQtQtQtQtQtQtQtQtQtQtQtQtQtQtQtQtQtQtQt"};
